<?xml version="1.0" encoding="utf-8"?>
<!-- Generator: Adobe Illustrator 24.3.0, SVG Export Plug-In . SVG Version: 6.00 Build 0)  -->
<svg version="1.1" id="Layer_1" xmlns="http://www.w3.org/2000/svg" xmlns:xlink="http://www.w3.org/1999/xlink" x="0px" y="0px"
	 viewBox="0 0 1000 1000" style="enable-background:new 0 0 1000 1000;" xml:space="preserve">
<style type="text/css">
	.st0{display:none;}
</style>
<g>
	<path d="M341.36,752.87l-9.96-26.19h-84.83l-9.96,26.76c-3.89,10.44-7.21,17.48-9.96,21.14c-2.75,3.65-7.26,5.48-13.52,5.48
		c-5.32,0-10.01-1.95-14.09-5.84c-4.08-3.89-6.12-8.3-6.12-13.24c0-2.85,0.47-5.79,1.42-8.82c0.95-3.04,2.51-7.26,4.7-12.67
		l53.37-135.5c1.52-3.89,3.34-8.56,5.48-14.02c2.13-5.46,4.41-9.99,6.83-13.59c2.42-3.6,5.6-6.52,9.54-8.75
		c3.94-2.23,8.8-3.34,14.59-3.34c5.88,0,10.79,1.12,14.73,3.34c3.94,2.23,7.12,5.1,9.54,8.61c2.42,3.51,4.46,7.28,6.12,11.32
		c1.66,4.03,3.77,9.42,6.33,16.15l54.51,134.65c4.27,10.25,6.41,17.7,6.41,22.35c0,4.84-2.02,9.28-6.05,13.31
		c-4.03,4.03-8.9,6.05-14.59,6.05c-3.32,0-6.17-0.59-8.54-1.78c-2.37-1.19-4.37-2.8-5.98-4.84c-1.61-2.04-3.34-5.17-5.2-9.39
		C344.27,759.83,342.68,756.1,341.36,752.87z M257.66,694.94h62.34l-31.46-86.11L257.66,694.94z"/>
	<path d="M434.44,603.99c-5.41,0-10.03-1.66-13.88-4.98c-3.84-3.32-5.76-8.02-5.76-14.09c0-5.5,1.97-10.03,5.91-13.59
		c3.94-3.56,8.52-5.34,13.74-5.34c5.03,0,9.49,1.61,13.38,4.84c3.89,3.23,5.84,7.92,5.84,14.09c0,5.98-1.9,10.65-5.69,14.02
		C444.17,602.31,439.66,603.99,434.44,603.99z M453.66,644.13v112.3c0,7.78-1.85,13.66-5.55,17.65c-3.7,3.99-8.4,5.98-14.09,5.98
		s-10.32-2.04-13.88-6.12c-3.56-4.08-5.34-9.92-5.34-17.51V645.27c0-7.69,1.78-13.47,5.34-17.37c3.56-3.89,8.18-5.83,13.88-5.83
		s10.39,1.95,14.09,5.83C451.81,631.8,453.66,637.21,453.66,644.13z"/>
	<path d="M621.18,600.44h-83.26v53.38h69.6c6.45,0,11.27,1.45,14.45,4.34c3.18,2.9,4.77,6.76,4.77,11.6c0,4.84-1.62,8.68-4.84,11.53
		c-3.23,2.85-8.02,4.27-14.38,4.27h-69.6v68.75c0,8.73-1.97,15.21-5.91,19.43s-8.99,6.33-15.16,6.33c-6.26,0-11.36-2.14-15.3-6.41
		c-3.94-4.27-5.91-10.72-5.91-19.36V593.75c0-6.07,0.9-11.03,2.7-14.87c1.8-3.84,4.63-6.64,8.47-8.4c3.84-1.75,8.75-2.63,14.73-2.63
		h99.63c6.74,0,11.74,1.5,15.02,4.48c3.27,2.99,4.91,6.9,4.91,11.74c0,4.93-1.64,8.9-4.91,11.88S627.92,600.44,621.18,600.44z"/>
	<path d="M705.73,784.9l3.56-8.68L661.46,655.8c-2.94-6.92-4.41-11.96-4.41-15.09c0-3.32,0.85-6.41,2.56-9.25s4.06-5.12,7.04-6.83
		s6.1-2.56,9.32-2.56c5.6,0,9.82,1.78,12.67,5.34c2.85,3.56,5.36,8.66,7.54,15.3l32.88,95.65l31.17-88.96
		c2.47-7.21,4.7-12.86,6.69-16.94c1.99-4.08,4.1-6.83,6.33-8.25c2.23-1.42,5.38-2.13,9.46-2.13c2.94,0,5.76,0.78,8.47,2.35
		c2.71,1.57,4.79,3.68,6.26,6.33c1.47,2.66,2.21,5.46,2.21,8.4c-0.38,1.8-1,4.37-1.85,7.69c-0.85,3.32-1.9,6.69-3.13,10.11
		L744.01,789.6c-4.37,11.67-8.64,20.83-12.81,27.47c-4.18,6.64-9.7,11.74-16.58,15.3c-6.88,3.56-16.16,5.34-27.83,5.34
		c-11.39,0-19.93-1.23-25.62-3.7c-5.69-2.47-8.54-6.97-8.54-13.52c0-4.46,1.35-7.9,4.06-10.32c2.7-2.42,6.71-3.63,12.03-3.63
		c2.09,0,4.13,0.28,6.12,0.85c2.47,0.57,4.6,0.85,6.4,0.85c4.46,0,7.97-0.67,10.53-1.99c2.56-1.33,4.86-3.63,6.9-6.9
		C700.72,796.07,703.07,791.25,705.73,784.9z"/>
</g>
<path d="M718.53,223.5H281.47c-39.45,0-75.15,15.99-101,41.84c-25.85,25.84-41.84,61.56-41.84,101
	c0,78.89,63.95,142.85,142.84,142.85h437.06c39.45,0,75.15-15.99,101-41.84c25.85-25.85,41.84-61.57,41.84-101.01
	C861.37,287.45,797.42,223.5,718.53,223.5z M313.67,413.93c-25.79,0-46.7-20.9-46.7-46.69s20.91-46.7,46.7-46.7
	c25.79,0,46.7,20.91,46.7,46.7S339.46,413.93,313.67,413.93z M500.31,413.14c-25.79,0-46.7-20.9-46.7-46.69
	c0-25.79,20.91-46.7,46.7-46.7S547,340.66,547,366.45C547,392.24,526.1,413.14,500.31,413.14z M689.28,413.93
	c-25.79,0-46.7-20.9-46.7-46.69s20.91-46.7,46.7-46.7c25.79,0,46.7,20.91,46.7,46.7S715.07,413.93,689.28,413.93z"/>
<path class="st0" d="M898.9,574.4l-24.85-53.84c-9.19-19.92-34.11-26.75-52.18-14.31l-31.06,21.4
	c-21.38,14.73-20.14,46.69,2.31,59.72l55.91,32.44C878.92,637.15,913.38,605.77,898.9,574.4z"/>
</svg>
